<?xml version="1.0" encoding="iso-8859-1"?>
<!-- Generator: Adobe Illustrator 19.0.0, SVG Export Plug-In . SVG Version: 6.00 Build 0)  -->
<svg xmlns="http://www.w3.org/2000/svg" xmlns:xlink="http://www.w3.org/1999/xlink" version="1.1" id="Layer_1" x="0px" y="0px" viewBox="0 0 512 512" style="enable-background:new 0 0 512 512;" xml:space="preserve">
<g>
	<g>
		<path d="M301.468,193.581l12.007-12.038c5.962,2.751,12.498,4.207,19.259,4.207c0.021,0,0.042,0,0.063,0    c12.29-0.016,23.838-4.817,32.517-13.519h-0.001c8.68-8.701,13.45-20.262,13.434-32.552c-0.016-12.289-4.817-23.837-13.518-32.517    c-17.963-17.914-47.152-17.875-65.068,0.086c-8.678,8.702-13.448,20.262-13.433,32.552c0.01,7.423,1.776,14.57,5.083,20.983    l-11.581,11.611L167.689,60.152l-54.853,54.999l11.48,11.45c-23.32,28.14-35.992,63.202-35.944,100.205    c0.049,37.233,12.974,72.465,36.646,100.631l-22.583,26.016c-5.352-2.261-11.23-3.513-17.396-3.513    c-24.725,0-44.841,20.115-44.841,44.841c0,24.726,20.116,44.841,44.841,44.841c5.727,0,11.201-1.091,16.241-3.057l13.885,12.411    c-11.687,12.317-19.134,28.901-19.904,47.401L94.611,512h142.934l-0.651-15.624c-1.62-38.902-32.726-69.376-70.817-69.376    c-8.882,0-17.375,1.675-25.212,4.709l-16.751-14.972c3.664-6.495,5.766-13.983,5.766-21.957c0-7.621-1.916-14.801-5.285-21.092    l21.833-25.152c27.914,22.747,62.501,35.111,98.985,35.111c0.069,0,0.143,0,0.212,0c37.008-0.049,72.041-12.817,100.111-36.206    l11.48,11.45l54.854-54.997L301.468,193.581z M321.4,128.435c3.123-3.131,7.23-4.696,11.336-4.696    c4.093,0,8.187,1.555,11.306,4.666c3.028,3.02,4.698,7.039,4.704,11.315c0.006,4.276-1.654,8.299-4.674,11.326h-0.001    c-3.02,3.028-7.037,4.698-11.313,4.704c-0.008,0-0.015,0-0.022,0c-4.268,0-8.282-1.659-11.305-4.675    C315.179,144.842,315.166,134.685,321.4,128.435z M85.038,409.622c-8.183,0-14.841-6.658-14.841-14.841    c0-8.184,6.658-14.841,14.841-14.841c8.184,0,14.841,6.657,14.841,14.841C99.879,402.965,93.221,409.622,85.038,409.622z     M166.077,457c16.59,0,30.888,10.19,37.294,25h-74.589C135.188,467.19,149.487,457,166.077,457z M245.586,353.648    c-0.058,0-0.113,0-0.171,0c-33.871,0-65.728-13.17-89.714-37.094c-24.028-23.965-37.285-55.853-37.33-89.787    c-0.038-28.961,9.552-56.457,27.298-78.869l178.718,178.25C302.053,343.937,274.568,353.61,245.586,353.648z M357.163,316.465    L155.261,115.093l12.483-12.517l201.901,201.372L357.163,316.465z"/>
	</g>
</g>
<g>
	<g>
		<path d="M406.717,66.666c-15.163-15.123-36.109-22.696-57.453-20.786l2.68,29.881c12.488-1.121,24.726,3.308,33.588,12.146    c8.936,8.911,13.387,21.24,12.211,33.824l29.869,2.791C429.623,103.001,422.007,81.915,406.717,66.666z"/>
	</g>
</g>
<g>
	<g>
		<path d="M442.894,28.724C422.229,8.113,393.689-2.21,364.594,0.397l2.68,29.881c20.231-1.82,40.072,5.36,54.436,19.686    c14.483,14.446,21.697,34.427,19.791,54.818l29.869,2.793C474.11,78.248,463.732,49.507,442.894,28.724z"/>
	</g>
</g>
<g>
</g>
<g>
</g>
<g>
</g>
<g>
</g>
<g>
</g>
<g>
</g>
<g>
</g>
<g>
</g>
<g>
</g>
<g>
</g>
<g>
</g>
<g>
</g>
<g>
</g>
<g>
</g>
<g>
</g>
</svg>
