<?xml version="1.0" encoding="iso-8859-1"?>
<!-- Generator: Adobe Illustrator 19.0.0, SVG Export Plug-In . SVG Version: 6.00 Build 0)  -->
<svg xmlns="http://www.w3.org/2000/svg" xmlns:xlink="http://www.w3.org/1999/xlink" version="1.1" id="Layer_1" x="0px" y="0px" viewBox="0 0 512 512" style="enable-background:new 0 0 512 512;" xml:space="preserve">
<g>
	<g>
		<path d="M480.549,202.861h-21.377c-1.464-30.314-10.241-98.045-57.431-147.354C366.492,18.675,317.458,0,255.999,0    S145.507,18.675,110.259,55.507c-47.19,49.31-55.967,117.04-57.431,147.354H31.45v149.265h47.628    c3.106,11.635,7.656,25.145,14.325,39.09c22.917,47.921,60.582,79.655,109.388,92.422V512h106.417v-28.362    c48.806-12.767,86.471-44.501,109.388-92.422c6.669-13.945,11.219-27.455,14.325-39.09h47.628L480.549,202.861L480.549,202.861z     M131.932,76.249C161.302,45.561,203.044,30,255.999,30c52.868,0,94.561,15.51,123.921,46.098    c39.473,41.123,47.563,99.924,49.139,126.764H82.906C84.426,176.098,92.418,117.541,131.932,76.249z M279.208,482h-46.417v-16.69    h46.417V482z M391.531,378.274c-17.996,37.632-45.644,62.504-82.323,74.163V435.31H202.791v17.126    c-36.387-11.568-63.895-36.149-81.906-73.296c-12.837-26.474-16.855-51.715-17.969-61.044l4.05-8.048h298.066l4.06,8.068    C408.018,327.29,404.136,351.915,391.531,378.274z M450.549,322.126L450.549,322.126h-5.853l-21.178-42.079H88.479l-21.178,42.079    H61.45v-89.265h389.099V322.126z"/>
	</g>
</g>
<g>
	<g>
		<polygon points="294.78,139.273 267.984,135.379 255.999,111.097 244.015,135.379 217.22,139.273 236.609,158.173     232.033,184.861 255.999,172.261 279.967,184.861 275.39,158.173   "/>
	</g>
</g>
<g>
</g>
<g>
</g>
<g>
</g>
<g>
</g>
<g>
</g>
<g>
</g>
<g>
</g>
<g>
</g>
<g>
</g>
<g>
</g>
<g>
</g>
<g>
</g>
<g>
</g>
<g>
</g>
<g>
</g>
</svg>
